<?xml version="1.0" encoding="UTF-8" standalone="no"?>
<!-- Created with Inkscape (http://www.inkscape.org/) -->

<svg
   xmlns:dc="http://purl.org/dc/elements/1.1/"
   xmlns:cc="http://creativecommons.org/ns#"
   xmlns:rdf="http://www.w3.org/1999/02/22-rdf-syntax-ns#"
   xmlns:svg="http://www.w3.org/2000/svg"
   xmlns="http://www.w3.org/2000/svg"
   xmlns:sodipodi="http://sodipodi.sourceforge.net/DTD/sodipodi-0.dtd"
   xmlns:inkscape="http://www.inkscape.org/namespaces/inkscape"
   width="682.17584"
   height="616.39062"
   id="svg2"
   version="1.1"
   inkscape:version="0.48.5 r10040"
   sodipodi:docname="core-proposal.svg">
  <defs
     id="defs4">
    <marker
       inkscape:stockid="Arrow1Sstart"
       orient="auto"
       refY="0"
       refX="0"
       id="Arrow1Sstart"
       style="overflow:visible">
      <path
         id="path10914"
         d="M 0,0 5,-5 -12.5,0 5,5 0,0 z"
         style="fill-rule:evenodd;stroke:#000000;stroke-width:1pt"
         transform="matrix(0.2,0,0,0.2,1.2,0)"
         inkscape:connector-curvature="0" />
    </marker>
    <marker
       inkscape:stockid="Arrow2Mstart"
       orient="auto"
       refY="0"
       refX="0"
       id="Arrow2Mstart"
       style="overflow:visible">
      <path
         id="path10926"
         style="fill-rule:evenodd;stroke-width:0.625;stroke-linejoin:round"
         d="M 8.7185878,4.0337352 -2.2072895,0.01601326 8.7185884,-4.0017078 c -1.7454984,2.3720609 -1.7354408,5.6174519 -6e-7,8.035443 z"
         transform="scale(0.6,0.6)"
         inkscape:connector-curvature="0" />
    </marker>
    <marker
       inkscape:stockid="TriangleOutM"
       orient="auto"
       refY="0"
       refX="0"
       id="TriangleOutM"
       style="overflow:visible">
      <path
         id="path11047"
         d="m 5.77,0 -8.65,5 0,-10 8.65,5 z"
         style="fill-rule:evenodd;stroke:#000000;stroke-width:1pt"
         transform="scale(0.4,0.4)"
         inkscape:connector-curvature="0" />
    </marker>
    <marker
       inkscape:stockid="TriangleInM"
       orient="auto"
       refY="0"
       refX="0"
       id="TriangleInM"
       style="overflow:visible">
      <path
         id="path11038"
         d="m 5.77,0 -8.65,5 0,-10 8.65,5 z"
         style="fill-rule:evenodd;stroke:#000000;stroke-width:1pt"
         transform="scale(-0.4,-0.4)"
         inkscape:connector-curvature="0" />
    </marker>
    <marker
       inkscape:stockid="TriangleInS"
       orient="auto"
       refY="0"
       refX="0"
       id="TriangleInS"
       style="overflow:visible">
      <path
         id="path11041"
         d="m 5.77,0 -8.65,5 0,-10 8.65,5 z"
         style="fill-rule:evenodd;stroke:#000000;stroke-width:1pt"
         transform="scale(-0.2,-0.2)"
         inkscape:connector-curvature="0" />
    </marker>
    <marker
       inkscape:stockid="Arrow2Lstart"
       orient="auto"
       refY="0"
       refX="0"
       id="Arrow2Lstart"
       style="overflow:visible">
      <path
         id="path10920"
         style="fill-rule:evenodd;stroke-width:0.625;stroke-linejoin:round"
         d="M 8.7185878,4.0337352 -2.2072895,0.01601326 8.7185884,-4.0017078 c -1.7454984,2.3720609 -1.7354408,5.6174519 -6e-7,8.035443 z"
         transform="matrix(1.1,0,0,1.1,1.1,0)"
         inkscape:connector-curvature="0" />
    </marker>
    <marker
       inkscape:stockid="Arrow1Lstart"
       orient="auto"
       refY="0"
       refX="0"
       id="Arrow1Lstart"
       style="overflow:visible">
      <path
         id="path10902"
         d="M 0,0 5,-5 -12.5,0 5,5 0,0 z"
         style="fill-rule:evenodd;stroke:#000000;stroke-width:1pt"
         transform="matrix(0.8,0,0,0.8,10,0)"
         inkscape:connector-curvature="0" />
    </marker>
    <clipPath
       id="clipPath16">
      <path
         d="m 0,1334 540,0 L 540,0 0,0 0,1334 z"
         inkscape:connector-curvature="0"
         id="path18" />
    </clipPath>
    <clipPath
       id="clipPath800">
      <path
         d="m 261.354,670.88 16.986,0 0,-16.987 -16.986,0 0,16.987 z"
         inkscape:connector-curvature="0"
         id="path802" />
    </clipPath>
  </defs>
  <sodipodi:namedview
     id="base"
     pagecolor="#ffffff"
     bordercolor="#666666"
     borderopacity="1.0"
     inkscape:pageopacity="0.0"
     inkscape:pageshadow="2"
     inkscape:zoom="1.28"
     inkscape:cx="257.13515"
     inkscape:cy="162.05654"
     inkscape:document-units="px"
     inkscape:current-layer="layer1"
     showgrid="false"
     showguides="true"
     inkscape:guide-bbox="true"
     inkscape:window-width="1894"
     inkscape:window-height="1013"
     inkscape:window-x="1280"
     inkscape:window-y="0"
     inkscape:window-maximized="0"
     fit-margin-top="0"
     fit-margin-left="0"
     fit-margin-right="0"
     fit-margin-bottom="0">
    <sodipodi:guide
       orientation="1,0"
       position="-384.57135,297.12988"
       id="guide6922" />
  </sodipodi:namedview>
  <metadata
     id="metadata7">
    <rdf:RDF>
      <cc:Work
         rdf:about="">
        <dc:format>image/svg+xml</dc:format>
        <dc:type
           rdf:resource="http://purl.org/dc/dcmitype/StillImage" />
        <dc:title></dc:title>
      </cc:Work>
    </rdf:RDF>
  </metadata>
  <g
     inkscape:label="Layer 1"
     inkscape:groupmode="layer"
     id="layer1"
     transform="translate(-31.017959,-61.35)">
    <rect
       style="fill:#58c190;fill-opacity:1;fill-rule:evenodd;stroke:#000000;stroke-width:2.36193132;stroke-linecap:round;stroke-linejoin:round;stroke-miterlimit:39.59999847;stroke-opacity:1;stroke-dasharray:18.89545097, 9.44772548;stroke-dashoffset:0"
       id="rect4258"
       width="679.8139"
       height="502.98398"
       x="32.198925"
       y="113.8837" />
    <flowRoot
       xml:space="preserve"
       id="flowRoot5032"
       style="font-size:16px;font-style:normal;font-variant:normal;font-weight:normal;font-stretch:normal;line-height:125%;letter-spacing:0px;word-spacing:0px;fill:#000000;fill-opacity:1;stroke:none;font-family:Arial;-inkscape-font-specification:Arial"
       transform="matrix(1,0,0,1.0500533,-136.69643,-39.7063)"><flowRegion
         id="flowRegion5034"><rect
           id="rect5036"
           width="150.00002"
           height="53.57143"
           x="180"
           y="153.79076" /></flowRegion><flowPara
         id="flowPara5038"
         style="font-style:normal;font-variant:normal;font-weight:bold;font-stretch:normal;font-family:Century Gothic;-inkscape-font-specification:Century Gothic">Histograph-Core</flowPara></flowRoot>    <flowRoot
       xml:space="preserve"
       id="flowRoot5058"
       style="font-size:16px;font-style:normal;font-variant:normal;font-weight:normal;font-stretch:normal;line-height:125%;letter-spacing:0px;word-spacing:0px;fill:#000000;fill-opacity:1;stroke:none;font-family:Arial;-inkscape-font-specification:Arial"><flowRegion
         id="flowRegion5060"><rect
           id="rect5062"
           width="34.285713"
           height="114.28571"
           x="375"
           y="154.50504" /></flowRegion><flowPara
         id="flowPara5064"></flowPara></flowRoot>    <g
       id="g6586"
       transform="translate(45.312499,-61.71875)">
      <g
         id="g6772">
        <rect
           y="218.25131"
           x="64.552353"
           height="92.364059"
           width="182.91522"
           id="rect5066"
           style="fill:#92d7b7;fill-opacity:1;fill-rule:evenodd;stroke:#000000;stroke-width:1.5;stroke-linecap:round;stroke-linejoin:round;stroke-miterlimit:39.59999847;stroke-opacity:1;stroke-dasharray:12, 6;stroke-dashoffset:0" />
        <text
           xml:space="preserve"
           style="font-size:16px;font-style:normal;font-variant:normal;font-weight:normal;font-stretch:normal;line-height:125%;letter-spacing:0px;word-spacing:0px;fill:#000000;fill-opacity:1;stroke:none;font-family:Arial;-inkscape-font-specification:Arial"
           x="72.142845"
           y="237.36218"
           id="text5068"
           sodipodi:linespacing="125%"><tspan
             sodipodi:role="line"
             x="72.142845"
             y="237.36218"
             id="tspan5072"
             style="font-size:14px;font-style:italic;font-variant:normal;font-weight:bold;font-stretch:normal;font-family:Corbel;-inkscape-font-specification:Corbel Italic">Histograph queue</tspan></text>
        <g
           transform="matrix(1.25,0,0,-1.25,-238.73733,1103.2027)"
           id="g796">
          <g
             id="g798" />
          <g
             id="g804">
            <g
               style="opacity:0.60000598"
               id="g806"
               clip-path="url(#clipPath800)">
              <g
                 id="g808"
                 transform="translate(277.46,657.6079)">
                <path
                   style="fill:#c6f7de;fill-opacity:1;fill-rule:nonzero;stroke:none"
                   id="path810"
                   inkscape:connector-curvature="0"
                   d="m 0,0 c 0,-1.559 -1.275,-2.834 -2.835,-2.834 l -9.557,0 c -1.559,0 -2.835,1.275 -2.835,2.834 l 0,9.558 c 0,1.559 1.276,2.834 2.835,2.834 l 9.557,0 C -1.275,12.392 0,11.117 0,9.558 L 0,0 z" />
              </g>
              <g
                 id="g812"
                 transform="translate(277.46,657.6079)">
                <path
                   style="fill:none;stroke:#000000;stroke-width:1.76100004;stroke-linecap:butt;stroke-linejoin:miter;stroke-miterlimit:10;stroke-opacity:1;stroke-dasharray:none"
                   id="path814"
                   inkscape:connector-curvature="0"
                   d="m 0,0 c 0,-1.559 -1.275,-2.834 -2.835,-2.834 l -9.557,0 c -1.559,0 -2.835,1.275 -2.835,2.834 l 0,9.558 c 0,1.559 1.276,2.834 2.835,2.834 l 9.557,0 C -1.275,12.392 0,11.117 0,9.558 L 0,0 z" />
              </g>
            </g>
          </g>
        </g>
        <g
           id="g5264"
           transform="matrix(1.25,0,0,-1.25,-210.88019,1103.2027)">
          <g
             id="g5266" />
          <g
             id="g5268">
            <g
               clip-path="url(#clipPath800)"
               id="g5270"
               style="opacity:0.60000598">
              <g
                 transform="translate(277.46,657.6079)"
                 id="g5272">
                <path
                   d="m 0,0 c 0,-1.559 -1.275,-2.834 -2.835,-2.834 l -9.557,0 c -1.559,0 -2.835,1.275 -2.835,2.834 l 0,9.558 c 0,1.559 1.276,2.834 2.835,2.834 l 9.557,0 C -1.275,12.392 0,11.117 0,9.558 L 0,0 z"
                   inkscape:connector-curvature="0"
                   id="path5274"
                   style="fill:#c6f7de;fill-opacity:1;fill-rule:nonzero;stroke:none" />
              </g>
              <g
                 transform="translate(277.46,657.6079)"
                 id="g5276">
                <path
                   d="m 0,0 c 0,-1.559 -1.275,-2.834 -2.835,-2.834 l -9.557,0 c -1.559,0 -2.835,1.275 -2.835,2.834 l 0,9.558 c 0,1.559 1.276,2.834 2.835,2.834 l 9.557,0 C -1.275,12.392 0,11.117 0,9.558 L 0,0 z"
                   inkscape:connector-curvature="0"
                   id="path5278"
                   style="fill:none;stroke:#000000;stroke-width:1.76100004;stroke-linecap:butt;stroke-linejoin:miter;stroke-miterlimit:10;stroke-opacity:1;stroke-dasharray:none" />
              </g>
            </g>
          </g>
        </g>
        <g
           transform="matrix(1.25,0,0,-1.25,-183.02305,1103.2027)"
           id="g5280">
          <g
             id="g5282" />
          <g
             id="g5284">
            <g
               style="opacity:0.60000598"
               id="g5286"
               clip-path="url(#clipPath800)">
              <g
                 id="g5288"
                 transform="translate(277.46,657.6079)">
                <path
                   style="fill:#c6f7de;fill-opacity:1;fill-rule:nonzero;stroke:none"
                   id="path5290"
                   inkscape:connector-curvature="0"
                   d="m 0,0 c 0,-1.559 -1.275,-2.834 -2.835,-2.834 l -9.557,0 c -1.559,0 -2.835,1.275 -2.835,2.834 l 0,9.558 c 0,1.559 1.276,2.834 2.835,2.834 l 9.557,0 C -1.275,12.392 0,11.117 0,9.558 L 0,0 z" />
              </g>
              <g
                 id="g5292"
                 transform="translate(277.46,657.6079)">
                <path
                   style="fill:none;stroke:#000000;stroke-width:1.76100004;stroke-linecap:butt;stroke-linejoin:miter;stroke-miterlimit:10;stroke-opacity:1;stroke-dasharray:none"
                   id="path5294"
                   inkscape:connector-curvature="0"
                   d="m 0,0 c 0,-1.559 -1.275,-2.834 -2.835,-2.834 l -9.557,0 c -1.559,0 -2.835,1.275 -2.835,2.834 l 0,9.558 c 0,1.559 1.276,2.834 2.835,2.834 l 9.557,0 C -1.275,12.392 0,11.117 0,9.558 L 0,0 z" />
              </g>
            </g>
          </g>
        </g>
        <g
           id="g5296"
           transform="matrix(1.25,0,0,-1.25,-154.45162,1103.2027)">
          <g
             id="g5298" />
          <g
             id="g5300">
            <g
               clip-path="url(#clipPath800)"
               id="g5302"
               style="opacity:0.60000598">
              <g
                 transform="translate(277.46,657.6079)"
                 id="g5304">
                <path
                   d="m 0,0 c 0,-1.559 -1.275,-2.834 -2.835,-2.834 l -9.557,0 c -1.559,0 -2.835,1.275 -2.835,2.834 l 0,9.558 c 0,1.559 1.276,2.834 2.835,2.834 l 9.557,0 C -1.275,12.392 0,11.117 0,9.558 L 0,0 z"
                   inkscape:connector-curvature="0"
                   id="path5306"
                   style="fill:#c6f7de;fill-opacity:1;fill-rule:nonzero;stroke:none" />
              </g>
              <g
                 transform="translate(277.46,657.6079)"
                 id="g5308">
                <path
                   d="m 0,0 c 0,-1.559 -1.275,-2.834 -2.835,-2.834 l -9.557,0 c -1.559,0 -2.835,1.275 -2.835,2.834 l 0,9.558 c 0,1.559 1.276,2.834 2.835,2.834 l 9.557,0 C -1.275,12.392 0,11.117 0,9.558 L 0,0 z"
                   inkscape:connector-curvature="0"
                   id="path5310"
                   style="fill:none;stroke:#000000;stroke-width:1.76100004;stroke-linecap:butt;stroke-linejoin:miter;stroke-miterlimit:10;stroke-opacity:1;stroke-dasharray:none" />
              </g>
            </g>
          </g>
        </g>
        <g
           transform="matrix(1.25,0,0,-1.25,-125.16591,1103.2027)"
           id="g5312">
          <g
             id="g5314" />
          <g
             id="g5316">
            <g
               style="opacity:0.60000598"
               id="g5318"
               clip-path="url(#clipPath800)">
              <g
                 id="g5320"
                 transform="translate(277.46,657.6079)">
                <path
                   style="fill:#c6f7de;fill-opacity:1;fill-rule:nonzero;stroke:none"
                   id="path5322"
                   inkscape:connector-curvature="0"
                   d="m 0,0 c 0,-1.559 -1.275,-2.834 -2.835,-2.834 l -9.557,0 c -1.559,0 -2.835,1.275 -2.835,2.834 l 0,9.558 c 0,1.559 1.276,2.834 2.835,2.834 l 9.557,0 C -1.275,12.392 0,11.117 0,9.558 L 0,0 z" />
              </g>
              <g
                 id="g5324"
                 transform="translate(277.46,657.6079)">
                <path
                   style="fill:none;stroke:#000000;stroke-width:1.76100004;stroke-linecap:butt;stroke-linejoin:miter;stroke-miterlimit:10;stroke-opacity:1;stroke-dasharray:none"
                   id="path5326"
                   inkscape:connector-curvature="0"
                   d="m 0,0 c 0,-1.559 -1.275,-2.834 -2.835,-2.834 l -9.557,0 c -1.559,0 -2.835,1.275 -2.835,2.834 l 0,9.558 c 0,1.559 1.276,2.834 2.835,2.834 l 9.557,0 C -1.275,12.392 0,11.117 0,9.558 L 0,0 z" />
              </g>
            </g>
          </g>
        </g>
      </g>
    </g>
    <g
       id="g6631"
       transform="translate(171.58482,-45.558036)">
      <g
         id="g6727"
         transform="translate(66.428571,-10.714286)">
        <rect
           style="fill:#92d7b7;fill-opacity:1;fill-rule:evenodd;stroke:#000000;stroke-width:1.5;stroke-linecap:round;stroke-linejoin:round;stroke-miterlimit:39.59999847;stroke-opacity:1;stroke-dasharray:12, 6;stroke-dashoffset:0"
           id="rect6633"
           width="182.91522"
           height="92.364059"
           x="218.83807"
           y="212.53703" />
        <text
           sodipodi:linespacing="125%"
           id="text6635"
           y="231.6479"
           x="226.42856"
           style="font-size:16px;font-style:normal;font-variant:normal;font-weight:normal;font-stretch:normal;line-height:125%;letter-spacing:0px;word-spacing:0px;fill:#000000;fill-opacity:1;stroke:none;font-family:Arial;-inkscape-font-specification:Arial"
           xml:space="preserve"><tspan
             style="font-size:14px;font-style:italic;font-variant:normal;font-weight:bold;font-stretch:normal;font-family:Corbel;-inkscape-font-specification:Corbel Italic"
             id="tspan6637"
             y="231.6479"
             x="226.42856"
             sodipodi:role="line">Elasticsearch queue</tspan></text>
        <g
           id="g6639"
           transform="matrix(1.25,0,0,-1.25,-84.451616,1097.4884)">
          <g
             id="g6641" />
          <g
             id="g6643">
            <g
               clip-path="url(#clipPath800)"
               id="g6645"
               style="opacity:0.60000598">
              <g
                 transform="translate(277.46,657.6079)"
                 id="g6647">
                <path
                   d="m 0,0 c 0,-1.559 -1.275,-2.834 -2.835,-2.834 l -9.557,0 c -1.559,0 -2.835,1.275 -2.835,2.834 l 0,9.558 c 0,1.559 1.276,2.834 2.835,2.834 l 9.557,0 C -1.275,12.392 0,11.117 0,9.558 L 0,0 z"
                   inkscape:connector-curvature="0"
                   id="path6649"
                   style="fill:#c6f7de;fill-opacity:1;fill-rule:nonzero;stroke:none" />
              </g>
              <g
                 transform="translate(277.46,657.6079)"
                 id="g6651">
                <path
                   d="m 0,0 c 0,-1.559 -1.275,-2.834 -2.835,-2.834 l -9.557,0 c -1.559,0 -2.835,1.275 -2.835,2.834 l 0,9.558 c 0,1.559 1.276,2.834 2.835,2.834 l 9.557,0 C -1.275,12.392 0,11.117 0,9.558 L 0,0 z"
                   inkscape:connector-curvature="0"
                   id="path6653"
                   style="fill:none;stroke:#000000;stroke-width:1.76100004;stroke-linecap:butt;stroke-linejoin:miter;stroke-miterlimit:10;stroke-opacity:1;stroke-dasharray:none" />
              </g>
            </g>
          </g>
        </g>
        <g
           transform="matrix(1.25,0,0,-1.25,-56.594476,1097.4884)"
           id="g6655">
          <g
             id="g6657" />
          <g
             id="g6659">
            <g
               style="opacity:0.60000598"
               id="g6661"
               clip-path="url(#clipPath800)">
              <g
                 id="g6663"
                 transform="translate(277.46,657.6079)">
                <path
                   style="fill:#c6f7de;fill-opacity:1;fill-rule:nonzero;stroke:none"
                   id="path6665"
                   inkscape:connector-curvature="0"
                   d="m 0,0 c 0,-1.559 -1.275,-2.834 -2.835,-2.834 l -9.557,0 c -1.559,0 -2.835,1.275 -2.835,2.834 l 0,9.558 c 0,1.559 1.276,2.834 2.835,2.834 l 9.557,0 C -1.275,12.392 0,11.117 0,9.558 L 0,0 z" />
              </g>
              <g
                 id="g6667"
                 transform="translate(277.46,657.6079)">
                <path
                   style="fill:none;stroke:#000000;stroke-width:1.76100004;stroke-linecap:butt;stroke-linejoin:miter;stroke-miterlimit:10;stroke-opacity:1;stroke-dasharray:none"
                   id="path6669"
                   inkscape:connector-curvature="0"
                   d="m 0,0 c 0,-1.559 -1.275,-2.834 -2.835,-2.834 l -9.557,0 c -1.559,0 -2.835,1.275 -2.835,2.834 l 0,9.558 c 0,1.559 1.276,2.834 2.835,2.834 l 9.557,0 C -1.275,12.392 0,11.117 0,9.558 L 0,0 z" />
              </g>
            </g>
          </g>
        </g>
        <g
           id="g6671"
           transform="matrix(1.25,0,0,-1.25,-28.737336,1097.4884)">
          <g
             id="g6673" />
          <g
             id="g6675">
            <g
               clip-path="url(#clipPath800)"
               id="g6677"
               style="opacity:0.60000598">
              <g
                 transform="translate(277.46,657.6079)"
                 id="g6679">
                <path
                   d="m 0,0 c 0,-1.559 -1.275,-2.834 -2.835,-2.834 l -9.557,0 c -1.559,0 -2.835,1.275 -2.835,2.834 l 0,9.558 c 0,1.559 1.276,2.834 2.835,2.834 l 9.557,0 C -1.275,12.392 0,11.117 0,9.558 L 0,0 z"
                   inkscape:connector-curvature="0"
                   id="path6681"
                   style="fill:#c6f7de;fill-opacity:1;fill-rule:nonzero;stroke:none" />
              </g>
              <g
                 transform="translate(277.46,657.6079)"
                 id="g6683">
                <path
                   d="m 0,0 c 0,-1.559 -1.275,-2.834 -2.835,-2.834 l -9.557,0 c -1.559,0 -2.835,1.275 -2.835,2.834 l 0,9.558 c 0,1.559 1.276,2.834 2.835,2.834 l 9.557,0 C -1.275,12.392 0,11.117 0,9.558 L 0,0 z"
                   inkscape:connector-curvature="0"
                   id="path6685"
                   style="fill:none;stroke:#000000;stroke-width:1.76100004;stroke-linecap:butt;stroke-linejoin:miter;stroke-miterlimit:10;stroke-opacity:1;stroke-dasharray:none" />
              </g>
            </g>
          </g>
        </g>
        <g
           transform="matrix(1.25,0,0,-1.25,-0.16590555,1097.4884)"
           id="g6687">
          <g
             id="g6689" />
          <g
             id="g6691">
            <g
               style="opacity:0.60000598"
               id="g6693"
               clip-path="url(#clipPath800)">
              <g
                 id="g6695"
                 transform="translate(277.46,657.6079)">
                <path
                   style="fill:#c6f7de;fill-opacity:1;fill-rule:nonzero;stroke:none"
                   id="path6697"
                   inkscape:connector-curvature="0"
                   d="m 0,0 c 0,-1.559 -1.275,-2.834 -2.835,-2.834 l -9.557,0 c -1.559,0 -2.835,1.275 -2.835,2.834 l 0,9.558 c 0,1.559 1.276,2.834 2.835,2.834 l 9.557,0 C -1.275,12.392 0,11.117 0,9.558 L 0,0 z" />
              </g>
              <g
                 id="g6699"
                 transform="translate(277.46,657.6079)">
                <path
                   style="fill:none;stroke:#000000;stroke-width:1.76100004;stroke-linecap:butt;stroke-linejoin:miter;stroke-miterlimit:10;stroke-opacity:1;stroke-dasharray:none"
                   id="path6701"
                   inkscape:connector-curvature="0"
                   d="m 0,0 c 0,-1.559 -1.275,-2.834 -2.835,-2.834 l -9.557,0 c -1.559,0 -2.835,1.275 -2.835,2.834 l 0,9.558 c 0,1.559 1.276,2.834 2.835,2.834 l 9.557,0 C -1.275,12.392 0,11.117 0,9.558 L 0,0 z" />
              </g>
            </g>
          </g>
        </g>
        <g
           id="g6703"
           transform="matrix(1.25,0,0,-1.25,29.119804,1097.4884)">
          <g
             id="g6705" />
          <g
             id="g6707">
            <g
               clip-path="url(#clipPath800)"
               id="g6709"
               style="opacity:0.60000598">
              <g
                 transform="translate(277.46,657.6079)"
                 id="g6711">
                <path
                   d="m 0,0 c 0,-1.559 -1.275,-2.834 -2.835,-2.834 l -9.557,0 c -1.559,0 -2.835,1.275 -2.835,2.834 l 0,9.558 c 0,1.559 1.276,2.834 2.835,2.834 l 9.557,0 C -1.275,12.392 0,11.117 0,9.558 L 0,0 z"
                   inkscape:connector-curvature="0"
                   id="path6713"
                   style="fill:#c6f7de;fill-opacity:1;fill-rule:nonzero;stroke:none" />
              </g>
              <g
                 transform="translate(277.46,657.6079)"
                 id="g6715">
                <path
                   d="m 0,0 c 0,-1.559 -1.275,-2.834 -2.835,-2.834 l -9.557,0 c -1.559,0 -2.835,1.275 -2.835,2.834 l 0,9.558 c 0,1.559 1.276,2.834 2.835,2.834 l 9.557,0 C -1.275,12.392 0,11.117 0,9.558 L 0,0 z"
                   inkscape:connector-curvature="0"
                   id="path6717"
                   style="fill:none;stroke:#000000;stroke-width:1.76100004;stroke-linecap:butt;stroke-linejoin:miter;stroke-miterlimit:10;stroke-opacity:1;stroke-dasharray:none" />
              </g>
            </g>
          </g>
        </g>
      </g>
      <flowRoot
         xml:space="preserve"
         id="flowRoot6719"
         style="font-size:16px;font-style:normal;font-variant:normal;font-weight:normal;font-stretch:normal;line-height:125%;letter-spacing:0px;word-spacing:0px;fill:#000000;fill-opacity:1;stroke:none;font-family:Arial;-inkscape-font-specification:Arial"
         transform="translate(-129.28571,-12.142857)"><flowRegion
           id="flowRegion6721"><rect
             id="rect6723"
             width="230.71428"
             height="275.71429"
             x="168.57143"
             y="88.076469" /></flowRegion><flowPara
           id="flowPara6725"></flowPara></flowRoot>    </g>
    <g
       id="g10859">
      <g
         id="g6817"
         transform="translate(30.71428,207.65625)">
        <g
           id="g6819"
           transform="translate(66.428571,-10.714286)">
          <rect
             style="fill:#92d7b7;fill-opacity:1;fill-rule:evenodd;stroke:#000000;stroke-width:1.5;stroke-linecap:round;stroke-linejoin:round;stroke-miterlimit:39.59999847;stroke-opacity:1;stroke-dasharray:12, 6;stroke-dashoffset:0"
             id="rect6821"
             width="117.18748"
             height="92.364059"
             x="218.83807"
             y="212.53703" />
          <text
             sodipodi:linespacing="125%"
             id="text6823"
             y="231.6479"
             x="226.42856"
             style="font-size:16px;font-style:normal;font-variant:normal;font-weight:normal;font-stretch:normal;line-height:125%;letter-spacing:0px;word-spacing:0px;fill:#000000;fill-opacity:1;stroke:none;font-family:Arial;-inkscape-font-specification:Arial"
             xml:space="preserve"><tspan
               style="font-size:14px;font-style:italic;font-variant:normal;font-weight:bold;font-stretch:normal;font-family:Corbel;-inkscape-font-specification:Corbel Italic"
               id="tspan6825"
               y="231.6479"
               x="226.42856"
               sodipodi:role="line">Neo4j database</tspan></text>
        </g>
        <flowRoot
           xml:space="preserve"
           id="flowRoot6907"
           style="font-size:16px;font-style:normal;font-variant:normal;font-weight:normal;font-stretch:normal;line-height:125%;letter-spacing:0px;word-spacing:0px;fill:#000000;fill-opacity:1;stroke:none;font-family:Arial;-inkscape-font-specification:Arial"
           transform="translate(-129.28571,-12.142857)"><flowRegion
             id="flowRegion6909"><rect
               id="rect6911"
               width="230.71428"
               height="275.71429"
               x="168.57143"
               y="88.076469" /></flowRegion><flowPara
             id="flowPara6913"></flowPara></flowRoot>      </g>
      <g
         transform="translate(182.03125,7.8125001)"
         id="g10681">
        <g
           style="fill:none;stroke:#000000;stroke-opacity:1"
           id="g10449"
           transform="matrix(0.28274623,0,0,-0.25431184,192.88759,457.64242)">
          <g
             style="fill:none;stroke:#000000;stroke-opacity:1"
             id="g10451">
            <g
               style="fill:none;stroke:#000000;stroke-opacity:1"
               id="g10453">
              <path
                 id="path10455"
                 d="m 42.232,94.887 c -26.678,13.108 -69.793,13.108 -96.298,-0.001 -26.503,-13.109 -26.362,-34.367 0.313,-47.475 26.679,-13.109 69.795,-13.109 96.298,0 26.503,13.109 26.363,34.365 -0.313,47.476"
                 stroke-miterlimit="10"
                 inkscape:connector-curvature="0"
                 style="fill:none;stroke:#000000;stroke-width:5;stroke-linecap:round;stroke-linejoin:round;stroke-miterlimit:10;stroke-opacity:1" />
            </g>
          </g>
        </g>
        <path
           id="path10461"
           d="m 172.01357,439.54864 h -10e-4 v 0.03 c 0,-0.0102 10e-4,-0.0198 10e-4,-0.03 z"
           stroke-miterlimit="10"
           inkscape:connector-curvature="0"
           style="fill:none;stroke:#000000;stroke-width:1.34076202;stroke-linecap:round;stroke-linejoin:round;stroke-miterlimit:10;stroke-opacity:1" />
        <path
           id="path10463"
           d="m 210.51286,439.54864 c 0.0452,2.20158 -1.8158,4.40748 -5.59102,6.08746 -7.49363,3.33352 -19.68451,3.33352 -27.2279,0 -3.76222,-1.66294 -5.65662,-3.84138 -5.68179,-6.02108 l -0.005,35.28576 c 0.0158,2.18607 1.91108,4.37061 5.6832,6.03737 7.54282,3.33377 19.73399,3.33377 27.22761,0 3.74667,-1.66702 5.61054,-3.85232 5.59385,-6.03737 l 0.005,-35.35214 h -0.004 z"
           stroke-miterlimit="10"
           inkscape:connector-curvature="0"
           style="fill:none;stroke:#000000;stroke-width:1.34076202;stroke-linecap:round;stroke-linejoin:round;stroke-miterlimit:10;stroke-opacity:1" />
      </g>
    </g>
    <flowRoot
       transform="translate(-35.15625,16.40625)"
       style="font-size:16px;font-style:normal;font-variant:normal;font-weight:normal;font-stretch:normal;text-align:center;line-height:125%;letter-spacing:0px;word-spacing:0px;text-anchor:middle;fill:#000000;fill-opacity:1;stroke:none;font-family:Arial;-inkscape-font-specification:Arial"
       id="flowRoot10831"
       xml:space="preserve"><flowRegion
         id="flowRegion10833"><rect
           y="621.89343"
           x="285.15625"
           height="44.53125"
           width="247.65625"
           id="rect10835"
           style="text-align:center;text-anchor:middle" /></flowRegion><flowPara
         style="font-style:italic;font-variant:normal;font-weight:bold;font-stretch:normal;text-align:center;text-anchor:middle;font-family:Corbel;-inkscape-font-specification:Corbel"
         id="flowPara15163">Neo4j I/O</flowPara><flowPara
         style="font-style:italic;font-variant:normal;font-weight:bold;font-stretch:normal;text-align:center;text-anchor:middle;font-family:Corbel;-inkscape-font-specification:Corbel"
         id="flowPara15167">used by API</flowPara></flowRoot>    <flowRoot
       transform="translate(-28.25893,188.48214)"
       style="font-size:16px;font-style:normal;font-variant:normal;font-weight:normal;font-stretch:normal;line-height:125%;letter-spacing:0px;word-spacing:0px;fill:#000000;fill-opacity:1;stroke:none;font-family:Arial;-inkscape-font-specification:Arial"
       id="flowRoot10650"
       xml:space="preserve"><flowRegion
         id="flowRegion10652"><rect
           y="88.076469"
           x="168.57143"
           height="275.71429"
           width="230.71428"
           id="rect10654" /></flowRegion><flowPara
         id="flowPara10656"></flowPara></flowRoot>    <rect
       style="fill:#92d7b7;fill-opacity:1;fill-rule:evenodd;stroke:#000000;stroke-width:1.5;stroke-linecap:round;stroke-linejoin:round;stroke-miterlimit:39.59999847;stroke-opacity:1;stroke-dasharray:12, 6;stroke-dashoffset:0"
       id="rect10644"
       width="148.95444"
       height="79.686653"
       x="479.26218"
       y="326.69775" />
    <text
       sodipodi:linespacing="125%"
       id="text10646"
       y="344.21487"
       x="486.85266"
       style="font-size:16px;font-style:normal;font-variant:normal;font-weight:normal;font-stretch:normal;line-height:125%;letter-spacing:0px;word-spacing:0px;fill:#000000;fill-opacity:1;stroke:none;font-family:Arial;-inkscape-font-specification:Arial"
       xml:space="preserve"><tspan
         style="font-size:14px;font-style:italic;font-variant:normal;font-weight:bold;font-stretch:normal;font-family:Corbel;-inkscape-font-specification:Corbel Italic"
         id="tspan10648"
         y="344.21487"
         x="486.85266"
         sodipodi:role="line">Elasticsearch</tspan></text>
    <g
       id="g10693"
       transform="matrix(0.3689008,0.3689008,-0.3689008,0.3689008,357.78296,-78.043245)">
      <path
         transform="translate(34.375,72.65625)"
         d="m 869.53125,264.47156 c 0,13.15991 -10.66821,23.82812 -23.82813,23.82812 -13.15991,0 -23.82812,-10.66821 -23.82812,-23.82812 0,-13.15991 10.66821,-23.82813 23.82812,-23.82813 13.15992,0 23.82813,10.66822 23.82813,23.82813 z"
         sodipodi:ry="23.828125"
         sodipodi:rx="23.828125"
         sodipodi:cy="264.47156"
         sodipodi:cx="845.70312"
         id="path10689"
         style="fill:none;stroke:#000000;stroke-width:8;stroke-linecap:round;stroke-linejoin:round;stroke-miterlimit:4;stroke-opacity:1;stroke-dasharray:none;stroke-dashoffset:0"
         sodipodi:type="arc" />
      <path
         inkscape:connector-curvature="0"
         id="path10691"
         d="m 879.6875,367.55938 0,33.49724"
         style="fill:none;stroke:#000000;stroke-width:7.66717529;stroke-linecap:butt;stroke-linejoin:miter;stroke-miterlimit:4;stroke-opacity:1;stroke-dasharray:none" />
    </g>
    <g
       id="g10804"
       transform="matrix(1.25,0,0,-1.25,552.17784,1041.484)">
      <g
         id="g10806" />
    </g>
    <g
       id="g11908"
       transform="translate(0,2.34375)">
      <path
         inkscape:connector-curvature="0"
         id="path10896"
         d="m 369.88438,512.57991 0,32.15782"
         style="fill:none;stroke:#000000;stroke-width:2.01274776;stroke-linecap:butt;stroke-linejoin:miter;stroke-miterlimit:4;stroke-opacity:1;stroke-dasharray:none;marker-start:url(#TriangleInM)" />
      <path
         style="fill:none;stroke:#000000;stroke-width:2.01274776;stroke-linecap:butt;stroke-linejoin:miter;stroke-miterlimit:4;stroke-opacity:1;stroke-dasharray:none;marker-start:url(#TriangleInM)"
         d="m 380.04063,540.5955 0,-32.15782"
         id="path11906"
         inkscape:connector-curvature="0" />
    </g>
    <g
       id="g11912"
       transform="translate(0,86.71875)">
      <path
         style="fill:none;stroke:#000000;stroke-width:2.01274776;stroke-linecap:butt;stroke-linejoin:miter;stroke-miterlimit:4;stroke-opacity:1;stroke-dasharray:none;marker-start:url(#TriangleInM)"
         d="m 369.88438,512.57991 0,32.15782"
         id="path11914"
         inkscape:connector-curvature="0" />
      <path
         inkscape:connector-curvature="0"
         id="path11916"
         d="m 380.04063,540.5955 0,-32.15782"
         style="fill:none;stroke:#000000;stroke-width:2.01274776;stroke-linecap:butt;stroke-linejoin:miter;stroke-miterlimit:4;stroke-opacity:1;stroke-dasharray:none;marker-start:url(#TriangleInM)" />
    </g>
    <flowRoot
       xml:space="preserve"
       id="flowRoot12936"
       style="font-size:16px;font-style:normal;font-variant:normal;font-weight:normal;font-stretch:normal;line-height:125%;letter-spacing:0px;word-spacing:0px;fill:#000000;fill-opacity:1;stroke:none;font-family:Arial;-inkscape-font-specification:Arial"
       transform="translate(63.28125,21.875)"><flowRegion
         id="flowRegion12938"><rect
           id="rect12940"
           width="175.78125"
           height="171.09375"
           x="132.03125"
           y="275.79968" /></flowRegion><flowPara
         id="flowPara12942"
         style="font-size:14px;font-style:italic;font-variant:normal;font-weight:normal;font-stretch:normal;font-family:Corbel;-inkscape-font-specification:Corbel"> Loop:</flowPara><flowPara
         style="font-size:14px;font-style:italic;font-variant:normal;font-weight:normal;font-stretch:normal;font-family:Corbel;-inkscape-font-specification:Corbel"
         id="flowPara13146">   1. Get message</flowPara><flowPara
         id="flowPara12944"
         style="font-size:14px;font-style:italic;font-variant:normal;font-weight:normal;font-stretch:normal;font-family:Corbel;-inkscape-font-specification:Corbel">   2. Parse message</flowPara><flowPara
         style="font-size:14px;font-style:italic;font-variant:normal;font-weight:normal;font-stretch:normal;font-family:Corbel;-inkscape-font-specification:Corbel"
         id="flowPara12948">   3. Send action to DB</flowPara><flowPara
         style="font-size:14px;font-style:italic;font-variant:normal;font-weight:normal;font-stretch:normal;font-family:Corbel;-inkscape-font-specification:Corbel"
         id="flowPara12950">   4. If successful:</flowPara><flowPara
         style="font-size:14px;font-style:italic;font-variant:normal;font-weight:normal;font-stretch:normal;font-family:Corbel;-inkscape-font-specification:Corbel"
         id="flowPara12952">        Push action to ES queue</flowPara><flowPara
         id="flowPara12946"
         style="font-size:14px;font-style:italic;font-variant:normal;font-weight:normal;font-stretch:normal;font-family:Corbel;-inkscape-font-specification:Corbel" /></flowRoot>    <path
       style="fill:none;stroke:#000000;stroke-width:2;stroke-linecap:butt;stroke-linejoin:miter;stroke-miterlimit:4;stroke-opacity:1;stroke-dasharray:none;marker-end:url(#TriangleOutM)"
       d="m 406.68351,399.27994 0,-195.13596 34.65328,0"
       id="path12954"
       inkscape:connector-curvature="0" />
    <path
       style="fill:none;stroke:#000000;stroke-width:2;stroke-linecap:butt;stroke-linejoin:miter;stroke-miterlimit:4;stroke-opacity:1;stroke-dasharray:none;marker-end:url(#TriangleOutM)"
       d="m 155.25887,262.20022 0,194.70213 138.2825,0"
       id="path13148"
       inkscape:connector-curvature="0" />
    <path
       style="fill:none;stroke:#000000;stroke-width:2;stroke-linecap:butt;stroke-linejoin:miter;stroke-miterlimit:4;stroke-opacity:1;stroke-dasharray:none;marker-end:url(#TriangleOutM)"
       d="m 447.66569,187.51843 -140.63444,0"
       id="path13340"
       inkscape:connector-curvature="0" />
    <path
       inkscape:connector-curvature="0"
       id="path13552"
       d="m 546.09375,259.39342 0,54.21126"
       style="fill:none;stroke:#000000;stroke-width:2;stroke-linecap:butt;stroke-linejoin:miter;stroke-miterlimit:4;stroke-opacity:1;stroke-dasharray:none;marker-end:url(#TriangleOutM)" />
    <path
       style="fill:none;stroke:#000000;stroke-width:2;stroke-linecap:butt;stroke-linejoin:miter;stroke-miterlimit:4;stroke-opacity:1;stroke-dasharray:none;marker-end:url(#TriangleOutM)"
       d="m 556.25,315.88959 0,-54.21126"
       id="path13746"
       inkscape:connector-curvature="0" />
    <path
       style="fill:none;stroke:#000000;stroke-width:2;stroke-linecap:butt;stroke-linejoin:miter;stroke-miterlimit:4;stroke-opacity:1;stroke-dasharray:none;marker-mid:none;marker-end:url(#TriangleOutM)"
       d="m 546.6219,415.64343 0,64.23402 -95.0594,0"
       id="path13797"
       inkscape:connector-curvature="0" />
    <path
       inkscape:connector-curvature="0"
       id="path13799"
       d="m 556.88284,420.33093 0,70.46729 -108.18177,0"
       style="fill:none;stroke:#000000;stroke-width:2;stroke-linecap:butt;stroke-linejoin:miter;stroke-miterlimit:4;stroke-opacity:1;stroke-dasharray:none;marker-start:url(#TriangleInM)" />
    <flowRoot
       xml:space="preserve"
       id="flowRoot15153"
       style="font-size:16px;font-style:normal;font-variant:normal;font-weight:normal;font-stretch:normal;line-height:125%;letter-spacing:0px;word-spacing:0px;fill:#000000;fill-opacity:1;stroke:none;font-family:Arial;-inkscape-font-specification:Arial"
       transform="translate(-139.84375,-564.84375)"><flowRegion
         id="flowRegion15155"><rect
           id="rect15157"
           width="247.65625"
           height="44.53125"
           x="285.15625"
           y="621.89343" /></flowRegion><flowPara
         id="flowPara15159"
         style="font-style:italic;font-variant:normal;font-weight:bold;font-stretch:normal;font-family:Corbel;-inkscape-font-specification:Corbel">Import module</flowPara></flowRoot>    <path
       style="fill:none;stroke:#000000;stroke-width:2;stroke-linecap:butt;stroke-linejoin:miter;stroke-miterlimit:4;stroke-opacity:1;stroke-dasharray:none;marker-end:url(#TriangleOutM)"
       d="m 195.3125,83.612169 0,54.211261"
       id="path15161"
       inkscape:connector-curvature="0" />
    <flowRoot
       xml:space="preserve"
       id="flowRoot15198"
       style="font-size:16px;font-style:normal;font-variant:normal;font-weight:normal;font-stretch:normal;text-align:center;line-height:125%;letter-spacing:0px;word-spacing:0px;text-anchor:middle;fill:#000000;fill-opacity:1;stroke:none;font-family:Arial;-inkscape-font-specification:Arial"
       transform="translate(152.34375,16.40625)"><flowRegion
         id="flowRegion15200"><rect
           style="text-align:center;text-anchor:middle"
           id="rect15202"
           width="247.65625"
           height="44.53125"
           x="285.15625"
           y="621.89343" /></flowRegion><flowPara
         id="flowPara15204"
         style="font-style:italic;font-variant:normal;font-weight:bold;font-stretch:normal;text-align:center;text-anchor:middle;font-family:Corbel;-inkscape-font-specification:Corbel">Elasticsearch I/O</flowPara><flowPara
         id="flowPara15206"
         style="font-style:italic;font-variant:normal;font-weight:bold;font-stretch:normal;text-align:center;text-anchor:middle;font-family:Corbel;-inkscape-font-specification:Corbel">used by API</flowPara></flowRoot>    <path
       style="fill:none;stroke:#000000;stroke-width:1.96030593;stroke-linecap:butt;stroke-linejoin:miter;stroke-miterlimit:4;stroke-opacity:1;stroke-dasharray:none;marker-end:url(#TriangleOutM)"
       d="m 557.03125,628.29043 0,-93.81835 119.53125,0 0,-150.8599 -35.15625,0"
       id="path15208"
       inkscape:connector-curvature="0" />
    <path
       style="fill:none;stroke:#000000;stroke-width:1.95980144;stroke-linecap:butt;stroke-linejoin:miter;stroke-miterlimit:4;stroke-opacity:1;stroke-dasharray:none;marker-end:url(#TriangleOutM)"
       d="m 638.28125,371.11218 49.21875,0 0,174.03722 -119.53125,0 0,81.01733"
       id="path15404"
       inkscape:connector-curvature="0" />
  </g>
  <g
     inkscape:groupmode="layer"
     id="layer2"
     inkscape:label="Layer"
     transform="translate(-31.017959,-61.35)">
    <g
       id="g11943">
      <g
         id="g11969">
        <rect
           style="fill:#ff9955;fill-opacity:1;fill-rule:evenodd;stroke:#000000;stroke-width:1.61107886;stroke-linecap:round;stroke-linejoin:round;stroke-miterlimit:39.59999847;stroke-opacity:1;stroke-dasharray:12.88863078, 6.44431539;stroke-dashoffset:0"
           id="rect10734"
           width="211.00897"
           height="26.662498"
           x="267.70862"
           y="556.53259" />
        <text
           sodipodi:linespacing="125%"
           id="text10736"
           y="573.29968"
           x="309.64285"
           style="font-size:16px;font-style:normal;font-variant:normal;font-weight:normal;font-stretch:normal;line-height:125%;letter-spacing:0px;word-spacing:0px;fill:#000000;fill-opacity:1;stroke:none;font-family:Arial;-inkscape-font-specification:Arial"
           xml:space="preserve"><tspan
             style="font-size:14px;font-style:italic;font-variant:normal;font-weight:bold;font-stretch:normal;font-family:Corbel;-inkscape-font-specification:Corbel Italic"
             id="tspan10738"
             y="573.29968"
             x="309.64285"
             sodipodi:role="line">Thread 1: Neo4j server</tspan></text>
      </g>
    </g>
    <g
       id="g11977"
       transform="translate(-8.5937492,67.187499)">
      <rect
         style="fill:#ff9955;fill-opacity:1;fill-rule:evenodd;stroke:#000000;stroke-width:1.61107886;stroke-linecap:round;stroke-linejoin:round;stroke-miterlimit:39.59999847;stroke-opacity:1;stroke-dasharray:12.88863078, 6.44431539;stroke-dashoffset:0"
         id="rect10820"
         width="211.00897"
         height="26.662498"
         x="185.67737"
         y="197.93881" />
      <text
         sodipodi:linespacing="125%"
         id="text10822"
         y="214.70593"
         x="208.08032"
         style="font-size:16px;font-style:normal;font-variant:normal;font-weight:normal;font-stretch:normal;line-height:125%;letter-spacing:0px;word-spacing:0px;fill:#000000;fill-opacity:1;stroke:none;font-family:Arial;-inkscape-font-specification:Arial"
         xml:space="preserve"><tspan
           style="font-size:14px;font-style:italic;font-variant:normal;font-weight:bold;font-stretch:normal;font-family:Corbel;-inkscape-font-specification:Corbel Italic"
           id="tspan10824"
           y="214.70593"
           x="208.08032"
           sodipodi:role="line">Thread 2: Histograph queue</tspan></text>
    </g>
    <g
       id="g13540"
       transform="translate(-24.21875,-32.03125)">
      <g
         id="g13532"
         transform="translate(283.59375,109.375)">
        <rect
           style="fill:#ff9955;fill-opacity:1;fill-rule:evenodd;stroke:#000000;stroke-width:1.61107886;stroke-linecap:round;stroke-linejoin:round;stroke-miterlimit:39.59999847;stroke-opacity:1;stroke-dasharray:12.88863078, 6.44431539;stroke-dashoffset:0"
           id="rect13534"
           width="211.00897"
           height="26.662498"
           x="185.67737"
           y="197.93881" />
        <text
           sodipodi:linespacing="125%"
           id="text13536"
           y="214.70593"
           x="195.58032"
           style="font-size:16px;font-style:normal;font-variant:normal;font-weight:normal;font-stretch:normal;line-height:125%;letter-spacing:0px;word-spacing:0px;fill:#000000;fill-opacity:1;stroke:none;font-family:Arial;-inkscape-font-specification:Arial"
           xml:space="preserve"><tspan
             style="font-size:14px;font-style:italic;font-variant:normal;font-weight:bold;font-stretch:normal;font-family:Corbel;-inkscape-font-specification:Corbel Italic"
             id="tspan13538"
             y="214.70593"
             x="195.58032"
             sodipodi:role="line">Thread 3: Elasticsearch updates</tspan></text>
      </g>
    </g>
    <g
       transform="translate(-24.21875,129.6875)"
       id="g15188">
      <g
         transform="translate(283.59375,109.375)"
         id="g15190">
        <rect
           y="197.93881"
           x="185.67737"
           height="26.662498"
           width="211.00897"
           id="rect15192"
           style="fill:#ff9955;fill-opacity:1;fill-rule:evenodd;stroke:#000000;stroke-width:1.61107886;stroke-linecap:round;stroke-linejoin:round;stroke-miterlimit:39.59999847;stroke-opacity:1;stroke-dasharray:12.88863078, 6.44431539;stroke-dashoffset:0" />
        <text
           xml:space="preserve"
           style="font-size:16px;font-style:normal;font-variant:normal;font-weight:normal;font-stretch:normal;line-height:125%;letter-spacing:0px;word-spacing:0px;fill:#000000;fill-opacity:1;stroke:none;font-family:Arial;-inkscape-font-specification:Arial"
           x="230.73657"
           y="214.70593"
           id="text15194"
           sodipodi:linespacing="125%"><tspan
             sodipodi:role="line"
             x="230.73657"
             y="214.70593"
             id="tspan15196"
             style="font-size:14px;font-style:italic;font-variant:normal;font-weight:bold;font-stretch:normal;font-family:Corbel;-inkscape-font-specification:Corbel Italic">Thread 4: Inferencing</tspan></text>
      </g>
    </g>
  </g>
  <g
     inkscape:groupmode="layer"
     id="layer3"
     inkscape:label="Layer#1"
     transform="translate(-31.017959,-61.35)" />
</svg>
